<svg xmlns="http://www.w3.org/2000/svg" viewBox="0 0 512 512" width="100%" height="100%">
  <defs>
    <radialGradient id="bgGlow" cx="50%" cy="50%" r="55%">
      <stop offset="0%" stop-color="#141126" />
      <stop offset="60%" stop-color="#08090d" />
      <stop offset="100%" stop-color="#050608" />
    </radialGradient>

    <linearGradient id="brandGrad" x1="0%" y1="0%" x2="100%" y2="100%">
      <stop offset="0%" stop-color="#8b5cf6" />
      <stop offset="45%" stop-color="#d946ef" />
      <stop offset="80%" stop-color="#06b6d4" />
      <stop offset="100%" stop-color="#38bdf8" />
    </linearGradient>

    <linearGradient id="accentGrad" x1="100%" y1="0%" x2="0%" y2="100%">
      <stop offset="0%" stop-color="#38bdf8" />
      <stop offset="50%" stop-color="#ec4899" />
      <stop offset="100%" stop-color="#7c3aed" />
    </linearGradient>

    <filter id="softGlow" x="-20%" y="-20%" width="140%" height="140%">
      <feGaussianBlur stdDeviation="16" result="blur" />
      <feComposite in="SourceGraphic" in2="blur" operator="over" />
    </filter>

    <filter id="ambientBlur" x="-30%" y="-30%" width="160%" height="160%">
      <feGaussianBlur stdDeviation="38" />
    </filter>
  </defs>

  <rect width="512" height="512" fill="url(#bgGlow)" rx="96" />
  
  <g opacity="0.45" filter="url(#ambientBlur)">
    <circle cx="180" cy="256" r="90" fill="#7c3aed" />
    <circle cx="332" cy="256" r="90" fill="#06b6d4" />
  </g>

  <g transform="translate(0, 0)">
    <path 
      d="M 170,256 C 120,200 65,210 65,256 C 65,302 120,312 170,256 C 220,200 292,200 342,256 C 392,312 447,302 447,256 C 447,210 392,200 342,256 C 292,312 220,312 170,256 Z" 
      fill="none" 
      stroke="url(#brandGrad)" 
      stroke-width="32" 
      stroke-linecap="round" 
      stroke-linejoin="round"
      filter="url(#softGlow)"
    />

    <path 
      d="M 140,222 C 85,225 65,245 65,256 C 65,285 95,300 135,275 C 195,230 256,230 315,275" 
      fill="none" 
      stroke="url(#accentGrad)" 
      stroke-width="26" 
      stroke-linecap="round"
      opacity="0.9"
    />

    <path 
      d="M 72,275 L 48,305 C 45,308 50,312 54,308 L 88,288 Z" 
      fill="#8b5cf6" 
      opacity="0.95"
    />

    <path 
      d="M 440,237 L 464,207 C 467,204 462,200 458,204 L 424,224 Z" 
      fill="#06b6d4" 
      opacity="0.95"
    />

    <circle cx="160" cy="256" r="8" fill="#ffffff" opacity="0.9" />
    <circle cx="256" cy="256" r="10" fill="#ffffff" opacity="0.95" filter="url(#softGlow)" />
    <circle cx="352" cy="256" r="8" fill="#ffffff" opacity="0.9" />
  </g>
</svg>
